<svg xmlns="http://www.w3.org/2000/svg" viewBox="0 0 56.29 83"><defs><style>.cls-1{fill:#4091c6;}</style></defs><title>資產 1</title><g id="圖層_2" data-name="圖層 2"><g id="圖層_1-2" data-name="圖層 1"><path class="cls-1" d="M56.29,37.1V0h-36L.2,10.15l14,28.09L.2,45.59H0V83H37.4L56.25,71.16,42.65,44.09l13.59-7Zm-20.16-6L26.19,11.34h9.94Zm.74-21H25.55L21.14,1.29H53.33Zm-12.76,0H3.25L19.9,1.68Zm.64,1.28L36.13,34V45.61H19.26l-17-34.27Zm7.51,60.44L19.9,46.9H36.13V79.55L32.3,71.86v-.08ZM19.58,49.15,30.83,71.78H19.56ZM18.27,72.06l-17,9V46.9h17Zm.86,1H31.47l4.31,8.69h-33ZM37.4,36.53l3.52,7L37.4,45.34Zm0-2.86V11.22L55,1.85v34H38.49ZM14.73,39.39l3.09,6.22h-15ZM54.58,70.7,37.4,81.48V46.78l4.1-2.1ZM42.07,42.94,39.14,37.1H53.4Z"/></g></g></svg>