<svg xmlns="http://www.w3.org/2000/svg" viewBox="0 0 147.48 20.35"><defs><style>.cls-1{fill:#f39800;}</style></defs><title>資產 2</title><g id="圖層_2" data-name="圖層 2"><g id="圖層_1-2" data-name="圖層 1"><path class="cls-1" d="M0,.5H3.9a13.09,13.09,0,0,1,4.57.58A4.66,4.66,0,0,1,10.68,3a5.84,5.84,0,0,1,.81,3.13,5.26,5.26,0,0,1-1.06,3.36,5.5,5.5,0,0,1-2.87,1.87,16.85,16.85,0,0,1-3.88.3v8.2H0ZM3.68,8.05H4.85a6.22,6.22,0,0,0,1.92-.21,1.68,1.68,0,0,0,.85-.66,2,2,0,0,0,.3-1.1,1.77,1.77,0,0,0-.86-1.63,4.94,4.94,0,0,0-2.34-.38h-1Z"/><path class="cls-1" d="M26.69,0a9.63,9.63,0,0,1,7.05,3,9.86,9.86,0,0,1,2.95,7.24,9.75,9.75,0,0,1-2.91,7.16,9.57,9.57,0,0,1-7.07,2.93,9.53,9.53,0,0,1-7.23-3A10,10,0,0,1,16.6,10.2,10.09,10.09,0,0,1,26.59,0Zm0,3.6a6,6,0,0,0-4.51,1.87,6.5,6.5,0,0,0-1.83,4.74,6.18,6.18,0,0,0,2.3,5.07,6.26,6.26,0,0,0,4.1,1.46,6,6,0,0,0,4.42-1.91,6.83,6.83,0,0,0,0-9.34,6.06,6.06,0,0,0-4.52-1.89Z"/><path class="cls-1" d="M52.78,3.13l-2.72,2.4c-1-1.33-1.93-2-2.92-2A1.78,1.78,0,0,0,46,3.92a1.13,1.13,0,0,0-.46.87,1.46,1.46,0,0,0,.33.92,24.44,24.44,0,0,0,2.7,2.49q2.1,1.77,2.55,2.22a7.7,7.7,0,0,1,1.59,2.16,5.46,5.46,0,0,1,.46,2.25,5.12,5.12,0,0,1-1.64,3.93,6,6,0,0,1-4.29,1.55,6.29,6.29,0,0,1-3.6-1A8,8,0,0,1,41,16.12l3.09-1.86c.93,1.7,2,2.56,3.21,2.56a2.4,2.4,0,0,0,1.6-.55A1.66,1.66,0,0,0,49.54,15a2.16,2.16,0,0,0-.49-1.31,14,14,0,0,0-2.14-2,21.18,21.18,0,0,1-4.08-4,5,5,0,0,1-.92-2.79,4.6,4.6,0,0,1,1.53-3.45A5.3,5.3,0,0,1,47.22,0,6,6,0,0,1,50,.67,10,10,0,0,1,52.78,3.13Z"/><path class="cls-1" d="M59.12.5H69.67V4.1H62.78V7.59h6.89v3.54H62.78v5.08h6.89v3.63H59.12Z"/><path class="cls-1" d="M75.32.5H79V19.84H75.32Z"/><path class="cls-1" d="M85.6.5H90a14.57,14.57,0,0,1,6.26,1,8.2,8.2,0,0,1,3.38,3.4A11,11,0,0,1,101,10.39a11.28,11.28,0,0,1-.74,4.11,8.57,8.57,0,0,1-2,3.11,7.23,7.23,0,0,1-2.83,1.71,20.39,20.39,0,0,1-5.34.52H85.6Zm3.65,3.55V16.24H91a8.46,8.46,0,0,0,3.66-.58,4.33,4.33,0,0,0,1.86-1.95,7.1,7.1,0,0,0,.72-3.36,6.4,6.4,0,0,0-1.72-4.78c-1-1-2.69-1.52-5-1.52Z"/><path class="cls-1" d="M116,0a9.64,9.64,0,0,1,7.06,3,9.92,9.92,0,0,1,3,7.24,9.75,9.75,0,0,1-2.91,7.16,10.08,10.08,0,0,1-14.27-.05l0,0A10.16,10.16,0,0,1,116,0Zm0,3.6a6,6,0,0,0-4.51,1.87,6.5,6.5,0,0,0-1.83,4.74,6.18,6.18,0,0,0,2.3,5.07,6.29,6.29,0,0,0,4.11,1.46,6,6,0,0,0,4.46-1.89,6.81,6.81,0,0,0,0-9.34A6.06,6.06,0,0,0,116,3.61Z"/><path class="cls-1" d="M132,.5h3.53l8.27,12.72V.5h3.68V19.84h-3.54L135.68,7.16V19.84H132Z"/></g></g></svg>