<svg xmlns="http://www.w3.org/2000/svg" viewBox="0 0 147.48 125.93"><title>資產 16</title><g id="圖層_2" data-name="圖層 2"><g id="圖層_10" data-name="圖層 10"><path d="M101.89,37.1V0h-36V0L45.8,10.15l14,28.09-14,7.35v0H45.6V83H83v0l18.85-11.84L88.25,44.09l13.59-7Zm-20.16-6L71.79,11.34h9.94Zm.74-21H71.15L66.74,1.29H98.93Zm-12.76,0H48.85L65.5,1.68Zm.64,1.28L81.73,34V45.61H64.86l-17-34.27Zm7.51,60.44L65.5,46.9H81.73V79.55L77.9,71.86v-.08ZM65.18,49.15,76.43,71.78H65.16ZM63.87,72.06l-17,9V46.9h17Zm.86,1H77.07l4.31,8.69h-33ZM83,36.53l3.52,7L83,45.34Zm0-2.86V11.22l17.6-9.37v34H84.09ZM60.33,39.39l3.09,6.22h-15ZM100.18,70.7,83,81.48V46.78l4.1-2.1ZM87.67,42.94,84.74,37.1H99Z" style="fill:#4091c6"/><path d="M0,91.66H3.9a12.88,12.88,0,0,1,4.57.58,4.64,4.64,0,0,1,2.21,1.9,5.81,5.81,0,0,1,.81,3.13,5.27,5.27,0,0,1-1.06,3.36,5.5,5.5,0,0,1-2.87,1.87,16.69,16.69,0,0,1-3.88.3V111H0Zm3.68,7.55H4.85A6.46,6.46,0,0,0,6.77,99a1.75,1.75,0,0,0,.85-.66,2,2,0,0,0,.3-1.1,1.77,1.77,0,0,0-.86-1.63,4.89,4.89,0,0,0-2.34-.38h-1Z" style="fill:#f39800"/><path d="M26.69,91.17a9.6,9.6,0,0,1,7.05,3,9.87,9.87,0,0,1,2.95,7.24,9.77,9.77,0,0,1-2.91,7.16,9.57,9.57,0,0,1-7.07,2.93,9.58,9.58,0,0,1-7.23-3,10,10,0,0,1-2.88-7.14A10.09,10.09,0,0,1,26.69,91.17Zm0,3.6a6,6,0,0,0-4.51,1.87,6.48,6.48,0,0,0-1.83,4.74,6.18,6.18,0,0,0,2.3,5.07,6.26,6.26,0,0,0,4.1,1.46A6,6,0,0,0,31.17,106a6.83,6.83,0,0,0,0-9.34A6.07,6.07,0,0,0,26.65,94.77Z" style="fill:#f39800"/><path d="M52.78,94.29l-2.72,2.4c-1-1.33-1.93-2-2.92-2a1.78,1.78,0,0,0-1.19.39,1.12,1.12,0,0,0-.46.87,1.46,1.46,0,0,0,.33.92,24.56,24.56,0,0,0,2.7,2.49q2.1,1.76,2.55,2.22a7.53,7.53,0,0,1,1.59,2.16,5.42,5.42,0,0,1,.46,2.25,5.14,5.14,0,0,1-1.64,3.93,6,6,0,0,1-4.29,1.55,6.38,6.38,0,0,1-3.6-1A8,8,0,0,1,41,107.28l3.09-1.86c.93,1.7,2,2.56,3.21,2.56a2.41,2.41,0,0,0,1.6-.55,1.65,1.65,0,0,0,.64-1.28,2.16,2.16,0,0,0-.49-1.31,13.76,13.76,0,0,0-2.14-2,21.24,21.24,0,0,1-4.08-4,5,5,0,0,1-.92-2.79,4.57,4.57,0,0,1,1.53-3.45,5.31,5.31,0,0,1,3.78-1.44,5.92,5.92,0,0,1,2.76.67A9.93,9.93,0,0,1,52.78,94.29Z" style="fill:#f39800"/><path d="M59.12,91.66H69.67v3.6H62.78v3.49h6.89v3.54H62.78v5.08h6.89V111H59.12Z" style="fill:#f39800"/><path d="M75.32,91.66H79V111H75.32Z" style="fill:#f39800"/><path d="M85.6,91.66H90a14.44,14.44,0,0,1,6.26,1,8.2,8.2,0,0,1,3.38,3.4,11,11,0,0,1,1.32,5.49,11.17,11.17,0,0,1-.74,4.11,8.53,8.53,0,0,1-2.05,3.11,7.3,7.3,0,0,1-2.83,1.71A20.38,20.38,0,0,1,90,111H85.6Zm3.65,3.55V107.4H91a8.5,8.5,0,0,0,3.66-.58,4.3,4.3,0,0,0,1.86-1.95,7.14,7.14,0,0,0,.72-3.36,6.39,6.39,0,0,0-1.72-4.78c-1-1-2.69-1.52-5-1.52Z" style="fill:#f39800"/><path d="M116,91.17a9.61,9.61,0,0,1,7.06,3,9.91,9.91,0,0,1,3,7.24,9.77,9.77,0,0,1-2.91,7.16,10.09,10.09,0,0,1-14.3-.08A10.16,10.16,0,0,1,116,91.17Zm0,3.6a6,6,0,0,0-4.51,1.87,6.48,6.48,0,0,0-1.83,4.74,6.18,6.18,0,0,0,2.3,5.07,6.29,6.29,0,0,0,4.11,1.46,6,6,0,0,0,4.46-1.89,6.82,6.82,0,0,0,0-9.34A6.05,6.05,0,0,0,116,94.77Z" style="fill:#f39800"/><path d="M132,91.66h3.53l8.27,12.72V91.66h3.68V111h-3.54l-8.26-12.68V111H132Z" style="fill:#f39800"/><path d="M21,123.83V117h1.41a7.34,7.34,0,0,1,2.21.24,2.92,2.92,0,0,1,1.55,1.21,3.67,3.67,0,0,1,.56,2,3.47,3.47,0,0,1-.45,1.79,2.81,2.81,0,0,1-1.14,1.15,4.28,4.28,0,0,1-2,.37Zm.65-.64h.78a7.17,7.17,0,0,0,2-.18,2.2,2.2,0,0,0,1.21-.9,2.77,2.77,0,0,0,.44-1.58,2.92,2.92,0,0,0-.48-1.69,2.41,2.41,0,0,0-1.33-1,7.86,7.86,0,0,0-2.1-.2h-.48Z" style="fill:#727171;stroke:#727171;stroke-miterlimit:10;stroke-width:0.25px"/><path d="M32.9,118.8v5h-.63V123a2.89,2.89,0,0,1-.92.74,2.55,2.55,0,0,1-2.93-.52,2.64,2.64,0,0,1-.76-1.89,2.57,2.57,0,0,1,.77-1.86,2.49,2.49,0,0,1,1.83-.77,2.4,2.4,0,0,1,1.12.26,2.65,2.65,0,0,1,.89.79v-.92Zm-2.58.49a1.92,1.92,0,0,0-1,.27,2,2,0,0,0-.73.75,2.06,2.06,0,0,0,.73,2.78,1.94,1.94,0,0,0,1,.27,2.11,2.11,0,0,0,1-.26,1.83,1.83,0,0,0,.73-.73,2.07,2.07,0,0,0,.26-1,2,2,0,0,0-.58-1.46A1.89,1.89,0,0,0,30.32,119.29Z" style="fill:#727171;stroke:#727171;stroke-miterlimit:10;stroke-width:0.25px"/><path d="M34.9,116.93h.64v1.87h1v.56h-1v4.47H34.9v-4.47H34v-.56h.89Z" style="fill:#727171;stroke:#727171;stroke-miterlimit:10;stroke-width:0.25px"/><path d="M42.53,118.8v5h-.64V123a2.86,2.86,0,0,1-.91.74,2.44,2.44,0,0,1-1.11.25,2.5,2.5,0,0,1-1.83-.77,2.63,2.63,0,0,1-.75-1.89,2.56,2.56,0,0,1,.76-1.86,2.51,2.51,0,0,1,1.84-.77,2.46,2.46,0,0,1,1.12.26,2.62,2.62,0,0,1,.88.79v-.92Zm-2.59.49a2,2,0,0,0-1,.27,2.07,2.07,0,0,0-1,1.76,2.11,2.11,0,0,0,1,1.77,1.88,1.88,0,0,0,1,.27,2.11,2.11,0,0,0,1-.26,1.83,1.83,0,0,0,.73-.73,2,2,0,0,0,.26-1,2,2,0,0,0-.57-1.46A1.93,1.93,0,0,0,39.94,119.29Z" style="fill:#727171;stroke:#727171;stroke-miterlimit:10;stroke-width:0.25px"/><path d="M46.56,117h.68v6.8h-.68Z" style="fill:#727171;stroke:#727171;stroke-miterlimit:10;stroke-width:0.25px"/><path d="M48.66,118.8h.65v.9a2.8,2.8,0,0,1,.86-.77,2.16,2.16,0,0,1,1-.26,1.8,1.8,0,0,1,1,.29,1.61,1.61,0,0,1,.64.77,4,4,0,0,1,.21,1.51v2.59h-.64v-2.4a5.53,5.53,0,0,0-.08-1.16,1.17,1.17,0,0,0-1.26-1,1.63,1.63,0,0,0-1,.38,1.84,1.84,0,0,0-.62,1,6.84,6.84,0,0,0-.09,1.37v1.84h-.65Z" style="fill:#727171;stroke:#727171;stroke-miterlimit:10;stroke-width:0.25px"/><path d="M55,116.93h.64v1.87h1v.56h-1v4.47H55v-4.47h-.89v-.56H55Z" style="fill:#727171;stroke:#727171;stroke-miterlimit:10;stroke-width:0.25px"/><path d="M61.83,122.16l.55.29a3.17,3.17,0,0,1-.62.85,2.37,2.37,0,0,1-.8.49,2.78,2.78,0,0,1-1,.17,2.42,2.42,0,0,1-1.93-.81,2.7,2.7,0,0,1-.69-1.82,2.65,2.65,0,0,1,.59-1.71,2.4,2.4,0,0,1,2-1,2.5,2.5,0,0,1,2.06,1,2.73,2.73,0,0,1,.55,1.73H58a2,2,0,0,0,.57,1.43,1.75,1.75,0,0,0,1.33.56,2.11,2.11,0,0,0,.75-.13,2.18,2.18,0,0,0,.62-.35A3.16,3.16,0,0,0,61.83,122.16Zm0-1.35a2.07,2.07,0,0,0-.38-.83,1.64,1.64,0,0,0-.65-.5,2,2,0,0,0-.86-.19,1.83,1.83,0,0,0-1.27.48,2.09,2.09,0,0,0-.59,1Z" style="fill:#727171;stroke:#727171;stroke-miterlimit:10;stroke-width:0.25px"/><path d="M63.62,116.86h.65v7h-.65Z" style="fill:#727171;stroke:#727171;stroke-miterlimit:10;stroke-width:0.25px"/><path d="M65.49,116.86h.65v7h-.65Z" style="fill:#727171;stroke:#727171;stroke-miterlimit:10;stroke-width:0.25px"/><path d="M67.68,116.73a.52.52,0,0,1,.38.15.57.57,0,0,1,.16.38.55.55,0,0,1-.16.38.53.53,0,0,1-.38.16.52.52,0,0,1-.37-.16.55.55,0,0,1-.16-.38.57.57,0,0,1,.16-.38A.51.51,0,0,1,67.68,116.73Zm-.32,2.07H68v5h-.65Z" style="fill:#727171;stroke:#727171;stroke-miterlimit:10;stroke-width:0.25px"/><path d="M73.67,118.8h.64v4a4.86,4.86,0,0,1-.18,1.55,2,2,0,0,1-.89,1.07,2.89,2.89,0,0,1-1.51.37,3.49,3.49,0,0,1-1.16-.18,2.28,2.28,0,0,1-.84-.49,2.93,2.93,0,0,1-.6-.9h.7a1.87,1.87,0,0,0,.75.73,2.24,2.24,0,0,0,1.12.25,2.38,2.38,0,0,0,1.12-.25,1.56,1.56,0,0,0,.65-.62,2.75,2.75,0,0,0,.2-1.21v-.26a2.47,2.47,0,0,1-.9.71,2.52,2.52,0,0,1-1.12.25,2.64,2.64,0,0,1-1.31-.34,2.47,2.47,0,0,1-.94-.93,2.65,2.65,0,0,1,0-2.58,2.63,2.63,0,0,1,1-1,2.58,2.58,0,0,1,1.29-.35,2.45,2.45,0,0,1,1,.23,3.13,3.13,0,0,1,1,.77Zm-1.92.49a2,2,0,0,0-1,.27,2,2,0,0,0-.74.74,2,2,0,0,0-.27,1,1.84,1.84,0,0,0,.56,1.37,2,2,0,0,0,1.44.54,1.94,1.94,0,0,0,1.43-.54,1.85,1.85,0,0,0,.55-1.41,2.1,2.1,0,0,0-.25-1,1.93,1.93,0,0,0-.71-.71A2,2,0,0,0,71.75,119.29Z" style="fill:#727171;stroke:#727171;stroke-miterlimit:10;stroke-width:0.25px"/><path d="M79.91,122.16l.54.29a2.79,2.79,0,0,1-.62.85,2.23,2.23,0,0,1-.79.49,2.78,2.78,0,0,1-1,.17,2.41,2.41,0,0,1-1.93-.81,2.78,2.78,0,0,1-.11-3.53,2.43,2.43,0,0,1,2-1,2.5,2.5,0,0,1,2.06,1,2.73,2.73,0,0,1,.55,1.73H76.09a2.07,2.07,0,0,0,.56,1.43,1.77,1.77,0,0,0,1.34.56,2.11,2.11,0,0,0,.75-.13,2.18,2.18,0,0,0,.62-.35A3.16,3.16,0,0,0,79.91,122.16Zm0-1.35a2.07,2.07,0,0,0-.38-.83,1.64,1.64,0,0,0-.65-.5,2,2,0,0,0-.86-.19,1.83,1.83,0,0,0-1.27.48,2.09,2.09,0,0,0-.59,1Z" style="fill:#727171;stroke:#727171;stroke-miterlimit:10;stroke-width:0.25px"/><path d="M81.8,118.8h.65v.9a2.69,2.69,0,0,1,.86-.77,2.09,2.09,0,0,1,1-.26,1.84,1.84,0,0,1,1,.29,1.67,1.67,0,0,1,.64.77,4,4,0,0,1,.21,1.51v2.59h-.65v-2.4a5.77,5.77,0,0,0-.07-1.16,1.33,1.33,0,0,0-.43-.75,1.28,1.28,0,0,0-.83-.25,1.64,1.64,0,0,0-1.06.38,1.82,1.82,0,0,0-.61,1,6.84,6.84,0,0,0-.09,1.37v1.84H81.8Z" style="fill:#727171;stroke:#727171;stroke-miterlimit:10;stroke-width:0.25px"/><path d="M92.43,119.84l-.51.32a2.14,2.14,0,0,0-1.82-.88,2.1,2.1,0,0,0-1.52.59,1.92,1.92,0,0,0-.61,1.44,2,2,0,0,0,.28,1,1.92,1.92,0,0,0,.76.76,2.35,2.35,0,0,0,1.1.26,2.2,2.2,0,0,0,1.81-.88l.51.34a2.41,2.41,0,0,1-1,.84,3,3,0,0,1-1.38.3,2.71,2.71,0,0,1-2-.76,2.44,2.44,0,0,1-.79-1.84A2.66,2.66,0,0,1,88.69,119a3,3,0,0,1,1.44-.35,3.11,3.11,0,0,1,1,.15,2.66,2.66,0,0,1,.79.4A2.06,2.06,0,0,1,92.43,119.84Z" style="fill:#727171;stroke:#727171;stroke-miterlimit:10;stroke-width:0.25px"/><path d="M97.89,122.16l.54.29a3.17,3.17,0,0,1-.62.85,2.33,2.33,0,0,1-.79.49,2.83,2.83,0,0,1-1,.17,2.39,2.39,0,0,1-1.92-.81,2.67,2.67,0,0,1-.7-1.82,2.71,2.71,0,0,1,.59-1.71,2.42,2.42,0,0,1,2-1,2.48,2.48,0,0,1,2.05,1,2.74,2.74,0,0,1,.56,1.73H94.07a2,2,0,0,0,.56,1.43,1.77,1.77,0,0,0,1.34.56,2.19,2.19,0,0,0,.75-.13,2.12,2.12,0,0,0,.61-.35A3.16,3.16,0,0,0,97.89,122.16Zm0-1.35a2.21,2.21,0,0,0-.38-.83,1.75,1.75,0,0,0-.66-.5,2,2,0,0,0-.85-.19,1.85,1.85,0,0,0-1.28.48,2.16,2.16,0,0,0-.59,1Z" style="fill:#727171;stroke:#727171;stroke-miterlimit:10;stroke-width:0.25px"/><path d="M108.81,118.29l-.53.41a2.88,2.88,0,0,0-1.07-.87,3.09,3.09,0,0,0-1.37-.3,3,3,0,0,0-1.5.39,2.8,2.8,0,0,0-1.08,1,2.94,2.94,0,0,0-.38,1.48,2.79,2.79,0,0,0,.85,2.08,3.16,3.16,0,0,0,4.55-.29l.53.41a3.47,3.47,0,0,1-1.27,1,4,4,0,0,1-1.7.35,3.5,3.5,0,0,1-2.81-1.19,3.56,3.56,0,0,1-.87-2.42,3.35,3.35,0,0,1,1-2.51,3.61,3.61,0,0,1,2.63-1,3.9,3.9,0,0,1,1.72.37A3.3,3.3,0,0,1,108.81,118.29Z" style="fill:#727171;stroke:#727171;stroke-miterlimit:10;stroke-width:0.25px"/><path d="M112.43,118.67a2.49,2.49,0,0,1,1.92.84,2.69,2.69,0,0,1,0,3.66,2.43,2.43,0,0,1-1.88.79,2.46,2.46,0,0,1-1.9-.79,2.7,2.7,0,0,1,0-3.65A2.49,2.49,0,0,1,112.43,118.67Zm0,.63a1.83,1.83,0,0,0-1.38.6,2.1,2.1,0,0,0-.32,2.46,1.85,1.85,0,0,0,.71.73,2,2,0,0,0,1,.26,2,2,0,0,0,1-.26,1.87,1.87,0,0,0,.72-.73,2.09,2.09,0,0,0,.26-1,2,2,0,0,0-.58-1.44A1.87,1.87,0,0,0,112.42,119.3Z" style="fill:#727171;stroke:#727171;stroke-miterlimit:10;stroke-width:0.25px"/><path d="M116,118.8h.66v.73a2.45,2.45,0,0,1,.63-.65,1.14,1.14,0,0,1,1.26,0l-.34.55a.9.9,0,0,0-.34-.09,1,1,0,0,0-.63.26,1.77,1.77,0,0,0-.46.83,8,8,0,0,0-.12,1.74v1.7H116Z" style="fill:#727171;stroke:#727171;stroke-miterlimit:10;stroke-width:0.25px"/><path d="M119.05,118.8h.65v.92a2.62,2.62,0,0,1,.88-.79,2.39,2.39,0,0,1,1.11-.26,2.51,2.51,0,0,1,1.84.77,2.56,2.56,0,0,1,.76,1.86,2.6,2.6,0,0,1-.76,1.89,2.46,2.46,0,0,1-1.82.77,2.37,2.37,0,0,1-1.1-.25,2.75,2.75,0,0,1-.91-.74v2.7h-.65Zm2.59.49a1.93,1.93,0,0,0-1.42.59,2,2,0,0,0-.57,1.46,2.07,2.07,0,0,0,.26,1,1.83,1.83,0,0,0,.73.73,2.11,2.11,0,0,0,1,.26,1.9,1.9,0,0,0,1-.27,2,2,0,0,0,.73-.75,2,2,0,0,0,0-2,2,2,0,0,0-.72-.75A2,2,0,0,0,121.64,119.29Z" style="fill:#727171;stroke:#727171;stroke-miterlimit:10;stroke-width:0.25px"/><path d="M126.19,122.81a.56.56,0,0,1,.56.58.55.55,0,0,1-.16.4.56.56,0,0,1-.4.17.57.57,0,0,1-.41-.17.55.55,0,0,1-.16-.4.56.56,0,0,1,.16-.41A.57.57,0,0,1,126.19,122.81Z" style="fill:#727171;stroke:#727171;stroke-miterlimit:10;stroke-width:0.25px"/></g></g></svg>